# xmcd
#
# Track frame offsets:
#	150
#	17887
#	36804
#	55229
#	76567
#	96109
#	109955
#	130035
#	146503
#	165968
#	185825
#	202406
#
# Disc length: 2968 seconds
#
# Revision: 3
# Processed by: cddbd v1.5.1PL0 Copyright (c) Steve Scherf et al.
# Submitted via: CDmax 2.0
#
DISCID=a00b960c
DTITLE=CASIOPEA - The Party
DYEAR=1900
DGENRE=Blues
TTITLE0=CYBER ZONE
TTITLE1=AOI HONOU (the blue fire)
TTITLE2=ILLUSION
TTITLE3=NOSTALGIA
TTITLE4=FLUSH UP
TTITLE5=STORMY HEARTS
TTITLE6=MOKUGEKISHA (an eyewitness)
TTITLE7=ROMANCING
TTITLE8=TOKIMEKI (the palpitation)
TTITLE9=GOLDEN ISLAND
TTITLE10=THE PARTY NIGHT
TTITLE11=DAISEKAI (the big globe)
EXTD=
EXTT0=
EXTT1=
EXTT2=
EXTT3=
EXTT4=
EXTT5=
EXTT6=
EXTT7=
EXTT8=
EXTT9=
EXTT10=
EXTT11=
PLAYORDER=
